<svg width="50" height="50" viewBox="0 0 50 50" xmlns="http://www.w3.org/2000/svg" id="icon"><path d="M25 50c13.807 0 25-11.193 25-25S38.807 0 25 0 0 11.193 0 25s11.193 25 25 25zm4.713-18h-9.746v-1.934l4.6-4.902c.63-.69 1.098-1.292 1.4-1.807.304-.514.455-1.002.455-1.464 0-.632-.16-1.128-.48-1.49-.318-.36-.773-.542-1.366-.542-.638 0-1.14.22-1.51.66-.366.44-.55 1.018-.55 1.734h-2.832c0-.866.206-1.657.62-2.373a4.37 4.37 0 0 1 1.753-1.684c.755-.407 1.61-.61 2.568-.61 1.465 0 2.603.35 3.413 1.055.81.704 1.216 1.697 1.216 2.98 0 .702-.182 1.418-.547 2.148-.365.73-.99 1.578-1.875 2.548l-3.232 3.41h6.113V32z" fill="currentColor" fill-rule="evenodd"/></svg>
