<svg width="50" height="50" viewBox="0 0 50 50" xmlns="http://www.w3.org/2000/svg" id="icon"><path d="M25 50c13.807 0 25-11.193 25-25S38.807 0 25 0 0 11.193 0 25s11.193 25 25 25zm-2.162-26.36h1.504c.716 0 1.247-.178 1.592-.536.345-.36.517-.834.517-1.426 0-.573-.17-1.02-.512-1.338-.34-.32-.812-.48-1.41-.48-.54 0-.993.15-1.358.446a1.42 1.42 0 0 0-.547 1.157H19.8c0-.742.2-1.408.6-1.997.402-.59.962-1.05 1.68-1.382.72-.332 1.513-.498 2.38-.498 1.503 0 2.68.36 3.534 1.08.853.718 1.28 1.71 1.28 2.973 0 .65-.2 1.25-.596 1.796a3.87 3.87 0 0 1-1.563 1.26c.8.286 1.398.715 1.792 1.288.394.573.59 1.25.59 2.032 0 1.263-.46 2.275-1.38 3.037-.922.76-2.14 1.142-3.658 1.142-1.42 0-2.58-.374-3.482-1.123-.902-.748-1.353-1.738-1.353-2.968h2.822c0 .533.2.97.6 1.308.4.34.894.508 1.48.508.67 0 1.197-.177 1.577-.532.38-.355.572-.825.572-1.41 0-1.42-.78-2.13-2.344-2.13h-1.494V23.64z" fill="currentColor" fill-rule="evenodd"/></svg>
